<svg width="365" height="242" viewBox="0 0 365 242" fill="none" xmlns="http://www.w3.org/2000/svg">
<g clip-path="url(#clip0_1_191)" filter="url(#filter0_d_1_191)">
<path d="M341.3 225.4H28.1C23.9 225.4 20.5 222 20.5 217.8V7.6C20.5 3.4 23.9 0 28.1 0H341.3C345.5 0 348.9 3.4 348.9 7.6V217.7C349 222 345.5 225.4 341.3 225.4Z" fill="#00D5E4"/>
<path d="M330.2 217.8H39.2C35 217.8 31.6 214.4 31.6 210.2V15.3C31.6 11.1 35 7.70001 39.2 7.70001H330.2C334.4 7.70001 337.8 11.1 337.8 15.3V210.2C337.9 214.3 334.4 217.8 330.2 217.8Z" fill="#065090"/>
<path d="M119.6 28.9H79.4V33.4H119.6V28.9Z" fill="#FCFDFD"/>
<path d="M105 38.9H79.4V43.4H105V38.9Z" fill="#FCFDFD"/>
<path d="M222.5 38.9H119.4V43.4H222.5V38.9Z" fill="#FCFDFD"/>
<path d="M286.5 38.9H232.5V43.4H286.5V38.9Z" fill="#FF6452"/>
<path d="M154.5 48.9H89.4V53.4H154.5V48.9Z" fill="#00D050"/>
<path d="M271.5 48.9H174.5V53.4H271.5V48.9Z" fill="#FCFDFD"/>
<path d="M171 58.9H79.4V63.4H171V58.9Z" fill="#FF6452"/>
<path d="M244.5 58.9H179.4V63.4H244.5V58.9Z" fill="#00D5E4"/>
<path d="M154.5 68.9H89.4V73.4H154.5V68.9Z" fill="#FCFDFD"/>
<path d="M174.5 78.9H79.4V83.4H174.5V78.9Z" fill="#FCFDFD"/>
<path d="M144.5 88.9H79.4V93.4H144.5V88.9Z" fill="#FCFDFD"/>
<path d="M208 98.9H99.4V103.4H208V98.9Z" fill="#FF6452"/>
<path d="M254.5 98.9H219.4V103.4H254.5V98.9Z" fill="#FCFDFD"/>
<path d="M304.5 98.9H269.4V103.4H304.5V98.9Z" fill="#FCFDFD"/>
<path d="M153.7 108.9H109.4V113.4H153.7V108.9Z" fill="#FCFDFD"/>
<path d="M168.5 118.9H109.4V123.4H168.5V118.9Z" fill="#FF6452"/>
<path d="M254.5 118.9H189.4V123.4H254.5V118.9Z" fill="#FCFDFD"/>
<path d="M296.5 118.9H269.4V123.4H296.5V118.9Z" fill="#FF6452"/>
<path d="M119.4 128.9H79.4V133.4H119.4V128.9Z" fill="#FCFDFD"/>
<path d="M144.5 138.9H79.4V143.4H144.5V138.9Z" fill="#FCFDFD"/>
<path d="M227.5 148.9H109.4V153.4H227.5V148.9Z" fill="#FCFDFD"/>
<path d="M312.5 148.9H239.4V153.4H312.5V148.9Z" fill="#00D5E4"/>
<path d="M149.5 158.9H109.4V163.4H149.5V158.9Z" fill="#FCFDFD"/>
<path d="M199.5 158.9H159.4V163.4H199.5V158.9Z" fill="#00D050"/>
<path d="M249.5 158.9H209.4V163.4H249.5V158.9Z" fill="#FCFDFD"/>
<path d="M144.5 168.9H79.4V173.4H144.5V168.9Z" fill="#FCFDFD"/>
<path d="M164.5 178.9H99.4V183.4H164.5V178.9Z" fill="#00D050"/>
<path d="M242 178.9H176.9V183.4H242V178.9Z" fill="#00D050"/>
<path d="M212 198.9H175.5V203.4H212V198.9Z" fill="#FCFDFD"/>
<path d="M196 188.9H99.4V193.4H196V188.9Z" fill="#FCFDFD"/>
<path d="M54.3 28.9H49.8V33.4H54.3V28.9Z" fill="#5E94C1"/>
<path d="M54.3 38.9H49.8V43.4H54.3V38.9Z" fill="#5E94C1"/>
<path d="M54.3 48.9H49.8V53.4H54.3V48.9Z" fill="#5E94C1"/>
<path d="M54.3 58.9H49.8V63.4H54.3V58.9Z" fill="#5E94C1"/>
<path d="M54.3 68.9H49.8V73.4H54.3V68.9Z" fill="#5E94C1"/>
<path d="M54.3 78.9H49.8V83.4H54.3V78.9Z" fill="#5E94C1"/>
<path d="M54.3 88.9H49.8V93.4H54.3V88.9Z" fill="#5E94C1"/>
<path d="M54.3 98.9H49.8V103.4H54.3V98.9Z" fill="#5E94C1"/>
<path d="M54.3 108.9H49.8V113.4H54.3V108.9Z" fill="#5E94C1"/>
<path d="M54.3 118.9H49.8V123.4H54.3V118.9Z" fill="#5E94C1"/>
<path d="M54.3 128.9H49.8V133.4H54.3V128.9Z" fill="#5E94C1"/>
<path d="M54.3 138.9H49.8V143.4H54.3V138.9Z" fill="#5E94C1"/>
<path d="M54.3 148.9H49.8V153.4H54.3V148.9Z" fill="#5E94C1"/>
<path d="M54.3 158.9H49.8V163.4H54.3V158.9Z" fill="#5E94C1"/>
<path d="M54.3 168.9H49.8V173.4H54.3V168.9Z" fill="#5E94C1"/>
<path d="M54.3 178.9H49.8V183.4H54.3V178.9Z" fill="#5E94C1"/>
<path d="M54.3 188.9H49.8V193.4H54.3V188.9Z" fill="#5E94C1"/>
<path d="M54.3 198.9H49.8V203.4H54.3V198.9Z" fill="#5E94C1"/>
<path d="M147.7 198.9H99.4V203.4H147.7V198.9Z" fill="#FCFDFD"/>
<path d="M288.7 203.3L269.7 195.2V191.9L288.7 183.8V187.3L273.6 193.5L288.7 199.7V203.3Z" fill="#FCFDFD"/>
<path d="M302.1 179L293.8 207.7H291L299.3 179H302.1Z" fill="#FCFDFD"/>
<path d="M323.3 195.2L304.3 203.3V199.8L319.4 193.6L304.3 187.4V183.9L323.3 192V195.2Z" fill="#FCFDFD"/>
<path d="M341 233.7H24C13 233.7 4 224.7 4 213.7H361C361 224.8 352 233.7 341 233.7Z" fill="#00BBD3"/>
<g opacity="0.1">
<g opacity="0.1">
<path opacity="0.1" d="M133.4 217.8L208 7.59998H179.7L105.1 217.8H133.4Z" fill="white"/>
</g>
<g opacity="0.1">
<path opacity="0.1" d="M39.3 217.8H52.6L127.2 7.59998H39.3C35.1 7.59998 31.7 11 31.7 15.2V210.1C31.6 214.3 35.1 217.8 39.3 217.8Z" fill="white"/>
</g>
<g opacity="0.1">
<path opacity="0.1" d="M291.6 217.8H330.3C334.5 217.8 337.9 214.4 337.9 210.2V87.4L291.6 217.8Z" fill="white"/>
</g>
</g>
<g opacity="0.1">
<g opacity="0.1">
<path opacity="0.1" d="M188.3 217.8H240.2L314.8 7.59998H262.9L188.3 217.8Z" fill="white"/>
</g>
</g>
<path d="M358.3 223.7C360 220.8 361 217.3 361 213.7H4C4 217.3 5 220.8 6.7 223.7H358.3Z" fill="#15D7E2"/>
</g>
<defs>
<filter id="filter0_d_1_191" x="0" y="0" width="365" height="241.7" filterUnits="userSpaceOnUse" color-interpolation-filters="sRGB">
<feFlood flood-opacity="0" result="BackgroundImageFix"/>
<feColorMatrix in="SourceAlpha" type="matrix" values="0 0 0 0 0 0 0 0 0 0 0 0 0 0 0 0 0 0 127 0" result="hardAlpha"/>
<feOffset dy="4"/>
<feGaussianBlur stdDeviation="2"/>
<feComposite in2="hardAlpha" operator="out"/>
<feColorMatrix type="matrix" values="0 0 0 0 0 0 0 0 0 0 0 0 0 0 0 0 0 0 0.25 0"/>
<feBlend mode="normal" in2="BackgroundImageFix" result="effect1_dropShadow_1_191"/>
<feBlend mode="normal" in="SourceGraphic" in2="effect1_dropShadow_1_191" result="shape"/>
</filter>
<clipPath id="clip0_1_191">
<rect width="357" height="233.7" fill="white" transform="translate(4)"/>
</clipPath>
</defs>
</svg>
